<svg width="87" height="87" viewBox="0 0 87 87" fill="none" xmlns="http://www.w3.org/2000/svg">
<path d="M43.14 7.19C36.0298 7.19 29.0792 9.29843 23.1673 13.2487C17.2553 17.1989 12.6475 22.8135 9.92655 29.3825C7.20558 35.9515 6.49365 43.1799 7.88079 50.1535C9.26793 57.1271 12.6918 63.5328 17.7195 68.5605C22.7472 73.5882 29.1529 77.0121 36.1265 78.3992C43.1001 79.7864 50.3285 79.0744 56.8975 76.3535C63.4665 73.6325 69.0811 69.0247 73.0313 63.1127C76.9816 57.2008 79.09 50.2502 79.09 43.14C79.09 38.419 78.1601 33.7442 76.3535 29.3825C74.5468 25.0209 71.8988 21.0578 68.5605 17.7195C65.2222 14.3812 61.2591 11.7332 56.8975 9.92653C52.5358 8.11987 47.861 7.19 43.14 7.19ZM58.5985 34.5479L42.1694 56.1179C41.8345 56.553 41.4044 56.9056 40.9121 57.1486C40.4198 57.3916 39.8783 57.5187 39.3293 57.52C38.7833 57.5229 38.2437 57.4014 37.7516 57.1647C37.2595 56.928 36.8278 56.5823 36.4893 56.1539L27.7175 44.9734C27.4271 44.6005 27.2131 44.174 27.0876 43.7183C26.9621 43.2626 26.9275 42.7867 26.9859 42.3177C27.0444 41.8486 27.1946 41.3957 27.4281 40.9847C27.6615 40.5738 27.9736 40.2128 28.3466 39.9225C29.0998 39.3361 30.0551 39.073 31.0024 39.1909C31.4714 39.2494 31.9243 39.3996 32.3353 39.6331C32.7463 39.8665 33.1072 40.1786 33.3976 40.5516L39.2574 48.0292L52.8465 30.0542C53.1345 29.6765 53.4941 29.3593 53.9047 29.1205C54.3152 28.8818 54.7688 28.7263 55.2395 28.6629C55.7102 28.5994 56.1888 28.6293 56.6479 28.7509C57.1071 28.8724 57.5378 29.0832 57.9155 29.3711C58.2932 29.6591 58.6104 30.0187 58.8491 30.4293C59.0879 30.8399 59.2434 31.2935 59.3068 31.7642C59.3702 32.2349 59.3403 32.7134 59.2188 33.1726C59.0973 33.6317 58.8865 34.0624 58.5985 34.4401V34.5479Z" fill="#002162"/>
</svg>
