<svg width="34" height="34" viewBox="0 0 34 34" fill="none" xmlns="http://www.w3.org/2000/svg">
<path d="M33.6666 17C33.6666 14.8113 33.2355 12.644 32.3979 10.6219C31.5603 8.59983 30.3327 6.76251 28.785 5.21487C27.2374 3.66722 25.4001 2.43957 23.378 1.60199C21.3559 0.764409 19.1886 0.333313 16.9999 0.333313C12.5796 0.333313 8.34041 2.08926 5.21481 5.21487C2.0892 8.34047 0.333252 12.5797 0.333252 17C0.333252 21.4203 2.0892 25.6595 5.21481 28.7851C8.34041 31.9107 12.5796 33.6666 16.9999 33.6666C21.4202 33.6666 25.6594 31.9107 28.785 28.7851C31.9106 25.6595 33.6666 21.4203 33.6666 17ZM30.2166 15.3333H25.3333C25.0584 11.4136 23.7154 7.6439 21.4499 4.43331C23.7774 5.25993 25.8295 6.71676 27.3774 8.64139C28.9253 10.566 29.9083 12.8828 30.2166 15.3333ZM12.1333 18.6666H21.9999C21.5734 22.7843 19.8183 26.6513 16.9999 29.6833C14.1834 26.6639 12.4686 22.7821 12.1333 18.6666ZM12.1333 15.3333C12.5214 11.2364 14.2292 7.37617 16.9999 4.33331C19.8411 7.34352 21.6001 11.2134 21.9999 15.3333H12.1333ZM12.7333 4.38331C10.4558 7.61168 9.09125 11.3945 8.78325 15.3333H3.78325C4.09809 12.8525 5.10427 10.5102 6.68686 8.57394C8.26946 6.63769 10.3647 5.18553 12.7333 4.38331ZM3.78325 18.6666H8.78325C9.05774 22.6021 10.4131 26.3854 12.6999 29.6C10.3399 28.7938 8.25323 27.342 6.67703 25.4093C5.10084 23.4766 4.09828 21.1406 3.78325 18.6666ZM21.3666 29.5833C23.6473 26.3678 25.0177 22.5962 25.3333 18.6666H30.2499C29.9347 21.1337 28.9358 23.4635 27.366 25.3926C25.7962 27.3217 23.7181 28.7733 21.3666 29.5833Z" fill="#FF8A00" fill-opacity="0.75"/>
</svg>
