<svg width="87" height="87" viewBox="0 0 87 87" fill="none" xmlns="http://www.w3.org/2000/svg">
<path d="M46.735 28.76C49.5954 28.76 52.3386 29.8963 54.3611 31.9189C56.3837 33.9414 57.52 36.6846 57.52 39.545C57.52 40.4985 57.8988 41.4129 58.5729 42.0871C59.2471 42.7612 60.1615 43.14 61.115 43.14C62.0685 43.14 62.9829 42.7612 63.6571 42.0871C64.3312 41.4129 64.71 40.4985 64.71 39.545C64.71 34.7777 62.8162 30.2057 59.4452 26.8348C56.0743 23.4638 51.5023 21.57 46.735 21.57C45.7815 21.57 44.8671 21.9488 44.193 22.623C43.5188 23.2972 43.14 24.2116 43.14 25.165C43.14 26.1185 43.5188 27.0329 44.193 27.7071C44.8671 28.3812 45.7815 28.76 46.735 28.76Z" fill="#002162"/>
<path d="M46.735 14.38C53.4092 14.38 59.81 17.0313 64.5293 21.7507C69.2487 26.47 71.9 32.8708 71.9 39.545C71.9 40.4985 72.2788 41.4129 72.9529 42.0871C73.6271 42.7612 74.5415 43.14 75.495 43.14C76.4485 43.14 77.3629 42.7612 78.0371 42.0871C78.7112 41.4129 79.09 40.4985 79.09 39.545C79.09 30.9639 75.6812 22.7343 69.6134 16.6666C63.5457 10.5988 55.3161 7.19 46.735 7.19C45.7815 7.19 44.8671 7.56876 44.193 8.24295C43.5188 8.91715 43.14 9.83155 43.14 10.785C43.14 11.7385 43.5188 12.6529 44.193 13.3271C44.8671 14.0012 45.7815 14.38 46.735 14.38Z" fill="#002162"/>
<path d="M78.1913 57.1965C77.9935 56.6193 77.6522 56.102 77.1994 55.6932C76.7465 55.2844 76.1971 54.9976 75.6029 54.8597L54.0329 49.9346C53.4474 49.8018 52.8379 49.8178 52.2602 49.9811C51.6825 50.1443 51.1549 50.4497 50.7255 50.8693C50.2222 51.3366 50.1862 51.3726 47.8495 55.8304C40.0958 52.2575 33.8829 46.0191 30.3418 38.2508C34.9075 35.95 34.9434 35.95 35.4108 35.4108C35.8303 34.9814 36.1357 34.4537 36.299 33.876C36.4622 33.2983 36.4782 32.6888 36.3455 32.1034L31.4203 10.785C31.2824 10.1907 30.9956 9.64133 30.5868 9.1885C30.178 8.73568 29.6607 8.39434 29.0836 8.1966C28.244 7.89674 27.377 7.68 26.4952 7.5495C25.5865 7.33882 24.6593 7.2184 23.727 7.19C19.3411 7.19 15.1349 8.93229 12.0336 12.0336C8.93229 15.1349 7.19 19.3411 7.19 23.727C7.20903 38.4043 13.048 52.4751 23.4265 62.8535C33.8049 73.232 47.8757 79.071 62.553 79.09C64.7247 79.09 66.8751 78.6623 68.8814 77.8312C70.8878 77.0001 72.7108 75.782 74.2464 74.2464C75.782 72.7108 77.0001 70.8878 77.8312 68.8814C78.6623 66.8751 79.09 64.7247 79.09 62.553C79.0911 61.638 79.019 60.7243 78.8743 59.8208C78.7232 58.9279 78.4947 58.0498 78.1913 57.1965Z" fill="#002162"/>
</svg>
