<svg width="87" height="87" viewBox="0 0 87 87" fill="none" xmlns="http://www.w3.org/2000/svg">
<path d="M43.14 7.19C36.0298 7.19 29.0792 9.29843 23.1673 13.2487C17.2553 17.1989 12.6475 22.8135 9.92655 29.3825C7.20558 35.9515 6.49365 43.1799 7.88079 50.1535C9.26793 57.1271 12.6918 63.5328 17.7195 68.5605C22.7472 73.5882 29.1529 77.0121 36.1265 78.3992C43.1001 79.7864 50.3285 79.0744 56.8975 76.3535C63.4665 73.6325 69.0811 69.0247 73.0313 63.1127C76.9816 57.2008 79.09 50.2502 79.09 43.14C79.09 38.419 78.1601 33.7442 76.3535 29.3825C74.5468 25.0209 71.8988 21.0578 68.5605 17.7195C65.2222 14.3812 61.2591 11.7332 56.8975 9.92653C52.5358 8.11988 47.861 7.19 43.14 7.19ZM43.14 64.71C42.429 64.71 41.7339 64.4992 41.1427 64.1041C40.5516 63.7091 40.0908 63.1476 39.8187 62.4907C39.5466 61.8338 39.4754 61.111 39.6141 60.4136C39.7528 59.7163 40.0952 59.0757 40.598 58.5729C41.1007 58.0702 41.7413 57.7278 42.4387 57.5891C43.136 57.4504 43.8589 57.5216 44.5158 57.7937C45.1727 58.0658 45.7341 58.5265 46.1292 59.1177C46.5242 59.7089 46.735 60.404 46.735 61.115C46.735 62.0685 46.3563 62.9829 45.6821 63.6571C45.0079 64.3312 44.0935 64.71 43.14 64.71ZM46.735 46.1598V50.33C46.735 51.2835 46.3563 52.1979 45.6821 52.872C45.0079 53.5462 44.0935 53.925 43.14 53.925C42.1866 53.925 41.2722 53.5462 40.598 52.872C39.9238 52.1979 39.545 51.2835 39.545 50.33V43.14C39.545 42.1865 39.9238 41.2721 40.598 40.598C41.2722 39.9238 42.1866 39.545 43.14 39.545C44.2066 39.545 45.2491 39.2287 46.1359 38.6362C47.0227 38.0437 47.7139 37.2015 48.122 36.2161C48.5302 35.2308 48.637 34.1465 48.4289 33.1005C48.2208 32.0544 47.7073 31.0936 46.9531 30.3394C46.1989 29.5853 45.2381 29.0717 44.192 28.8636C43.146 28.6555 42.0618 28.7623 41.0764 29.1705C40.091 29.5786 39.2489 30.2698 38.6563 31.1566C38.0638 32.0434 37.7475 33.086 37.7475 34.1525C37.7475 35.106 37.3688 36.0204 36.6946 36.6945C36.0204 37.3687 35.106 37.7475 34.1525 37.7475C33.1991 37.7475 32.2847 37.3687 31.6105 36.6945C30.9363 36.0204 30.5575 35.106 30.5575 34.1525C30.5481 31.8168 31.189 29.5247 32.4085 27.5326C33.6279 25.5405 35.3778 23.9272 37.4621 22.8732C39.5465 21.8192 41.8831 21.3663 44.2103 21.5649C46.5375 21.7636 48.7635 22.6062 50.639 23.9982C52.5146 25.3903 53.9656 27.2769 54.8297 29.4469C55.6938 31.6169 55.9368 33.9845 55.5316 36.2848C55.1264 38.585 54.0889 40.7271 52.5353 42.4712C50.9817 44.2152 48.9733 45.4924 46.735 46.1598Z" fill="#002162"/>
</svg>
