<svg width="85" height="85" viewBox="0 0 85 85" fill="none" xmlns="http://www.w3.org/2000/svg">
<path d="M40.4997 18.0002C37.9448 17.9914 35.4133 18.4865 33.05 19.4571C30.6867 20.4277 28.538 21.8548 26.7268 23.6567C24.9156 25.4586 23.4775 27.6 22.4947 29.9583C21.512 32.3165 21.0039 34.8455 20.9995 37.4003V57.0005C20.9995 57.7961 21.3156 58.5592 21.8782 59.1218C22.4408 59.6844 23.2039 60.0005 23.9995 60.0005H30.9996C31.7952 60.0005 32.5583 59.6844 33.1209 59.1218C33.6835 58.5592 33.9996 57.7961 33.9996 57.0005V37.4003C33.999 36.4916 34.1898 35.593 34.5597 34.7631C34.9296 33.9331 35.4703 33.1904 36.1465 32.5834C36.8227 31.9764 37.6192 31.5187 38.4842 31.2402C39.3491 30.9617 40.263 30.8686 41.1663 30.9669C42.7864 31.171 44.2752 31.9625 45.3504 33.1913C46.4257 34.4202 47.0125 36.0009 46.9997 37.6337V57.0005C46.9997 57.7961 47.3158 58.5592 47.8784 59.1218C48.441 59.6844 49.2041 60.0005 49.9997 60.0005H56.9998C57.7955 60.0005 58.5585 59.6844 59.1211 59.1218C59.6838 58.5592 59.9998 57.7961 59.9998 57.0005V37.4003C59.9955 34.8455 59.4874 32.3165 58.5046 29.9583C57.5219 27.6 56.0837 25.4586 54.2725 23.6567C52.4614 21.8548 50.3126 20.4277 47.9493 19.4571C45.586 18.4865 43.0545 17.9914 40.4997 18.0002Z" fill="#002162"/>
<path d="M12.0001 21.0002H3.00003C1.34316 21.0002 0 22.3433 0 24.0002V57.0005C0 58.6573 1.34316 60.0005 3.00003 60.0005H12.0001C13.657 60.0005 15.0001 58.6573 15.0001 57.0005V24.0002C15.0001 22.3433 13.657 21.0002 12.0001 21.0002Z" fill="#002162"/>
<path d="M7.50006 15.0001C11.6422 15.0001 15.0001 11.6422 15.0001 7.50006C15.0001 3.35789 11.6422 0 7.50006 0C3.35789 0 0 3.35789 0 7.50006C0 11.6422 3.35789 15.0001 7.50006 15.0001Z" fill="#002162"/>
</svg>
