<svg width="85" height="85" viewBox="0 0 85 85" fill="none" xmlns="http://www.w3.org/2000/svg">
<path d="M46.0416 7.08334C37.6669 6.27908 29.2794 8.48239 22.3811 13.2987C15.4829 18.115 10.5244 25.2297 8.39381 33.3687C6.26319 41.5076 7.09953 50.1393 10.7531 57.7178C14.4066 65.2964 20.6387 71.3268 28.3332 74.7292C32.7895 76.7443 37.61 77.8289 42.4999 77.9167C50.2844 77.9173 57.8523 75.3532 64.0332 70.6208C64.7792 70.052 65.269 69.2104 65.3952 68.2808C65.5214 67.3513 65.2735 66.4096 64.7062 65.6625C64.4242 65.2881 64.0708 64.9733 63.6663 64.7365C63.2618 64.4997 62.8144 64.3455 62.3498 64.2829C61.8853 64.2204 61.413 64.2506 60.9603 64.3719C60.5076 64.4932 60.0834 64.7031 59.7124 64.9896C56.0393 67.7641 51.7454 69.6019 47.2023 70.344C42.6592 71.086 38.0038 70.71 33.6387 69.2483C29.2736 67.7867 25.3304 65.2836 22.1502 61.9554C18.97 58.6273 16.6486 54.5744 15.3868 50.1474C14.125 45.7204 13.9609 41.0527 14.9086 36.548C15.8563 32.0433 17.8873 27.8374 20.8259 24.2941C23.7645 20.7508 27.5222 17.9769 31.7738 16.2123C36.0255 14.4477 40.643 13.7456 45.227 14.1667C52.3412 14.9901 58.8972 18.4225 63.6271 23.8C68.357 29.1776 70.9246 36.1181 70.8332 43.2792V45.6875C70.8292 46.5011 70.6612 47.3056 70.3393 48.0529C70.0175 48.8002 69.5483 49.4749 68.9599 50.0369C68.3715 50.5988 67.6759 51.0365 66.9147 51.3236C66.1534 51.6108 65.342 51.7417 64.5291 51.7083C62.9078 51.5303 61.4142 50.7443 60.3495 49.5087C59.2848 48.2731 58.7281 46.6798 58.7916 45.05V29.75C58.7916 28.8107 58.4184 27.9099 57.7543 27.2457C57.0901 26.5815 56.1892 26.2083 55.2499 26.2083C54.3852 26.201 53.5477 26.5103 52.8953 27.0779C52.2428 27.6455 51.8206 28.4322 51.7083 29.2896C48.4122 26.1856 44.0524 24.462 39.5249 24.4729C36.4478 24.496 33.4279 25.3063 30.7526 26.8268C28.0773 28.3473 25.8358 30.5273 24.2414 33.1592C22.6471 35.7911 21.753 38.7873 21.6442 41.8625C21.5355 44.9378 22.2158 47.9896 23.6203 50.7276C25.0248 53.4655 27.1068 55.7983 29.668 57.504C32.2292 59.2096 35.1844 60.2312 38.2521 60.4715C41.3199 60.7118 44.3981 60.1629 47.1937 58.8769C49.9892 57.591 52.4091 55.6108 54.2228 53.125C55.2509 54.7153 56.6202 56.0567 58.2314 57.0516C59.8426 58.0466 61.6552 58.6701 63.5375 58.877C65.4198 59.0839 67.3245 58.8689 69.1134 58.2477C70.9022 57.6264 72.5302 56.6145 73.8791 55.2854C75.1773 54.0503 76.2061 52.5601 76.9009 50.9084C77.5957 49.2567 77.9415 47.4792 77.9166 45.6875V43.2792C77.9958 34.3789 74.7865 25.7626 68.9041 19.0829C63.0217 12.4031 54.8805 8.13012 46.0416 7.08334ZM39.5958 53.4438C37.4313 53.4438 35.3154 52.8019 33.5157 51.5994C31.716 50.3969 30.3133 48.6877 29.485 46.688C28.6567 44.6883 28.44 42.4879 28.8623 40.365C29.2845 38.2421 30.3268 36.2921 31.8573 34.7616C33.3879 33.2311 35.3379 32.1888 37.4607 31.7665C39.5836 31.3443 41.784 31.561 43.7837 32.3893C45.7835 33.2176 47.4926 34.6203 48.6951 36.42C49.8977 38.2197 50.5395 40.3355 50.5395 42.5C50.5302 45.3996 49.3742 48.1778 47.3238 50.2281C45.2735 52.2784 42.4953 53.4344 39.5958 53.4438Z" fill="#002162"/>
</svg>
