<svg width="87" height="87" viewBox="0 0 87 87" fill="none" xmlns="http://www.w3.org/2000/svg">
<path d="M68.305 10.785H25.165C22.3046 10.785 19.5614 11.9213 17.5389 13.9439C15.5163 15.9664 14.38 18.7096 14.38 21.57V64.71C14.38 67.5704 15.5163 70.3136 17.5389 72.3362C19.5614 74.3587 22.3046 75.495 25.165 75.495H68.305C69.2585 75.495 70.1729 75.1162 70.8471 74.4421C71.5212 73.7679 71.9 72.8535 71.9 71.9V14.38C71.9 13.4266 71.5212 12.5121 70.8471 11.838C70.1729 11.1638 69.2585 10.785 68.305 10.785ZM25.165 68.305C24.2115 68.305 23.2971 67.9263 22.623 67.2521C21.9488 66.5779 21.57 65.6635 21.57 64.71C21.57 63.7565 21.9488 62.8421 22.623 62.168C23.2971 61.4938 24.2115 61.115 25.165 61.115H64.71V68.305H25.165Z" fill="#002162"/>
</svg>
