<svg width="85" height="85" viewBox="0 0 85 85" fill="none" xmlns="http://www.w3.org/2000/svg">
<path d="M42.4998 3.54167C32.2767 3.43778 22.4305 7.39715 15.1253 14.5496C7.82014 21.7021 3.65363 31.4624 3.5415 41.6854C3.5809 49.7646 6.17984 57.6234 10.9651 64.133C15.7503 70.6427 22.4755 75.4683 30.1748 77.9167C32.1228 78.2708 32.8311 77.1021 32.8311 76.075C32.8311 75.0479 32.8311 72.7812 32.8311 69.5938C21.9936 71.8958 19.6915 64.4937 19.6915 64.4937C18.9701 62.1701 17.4363 60.1837 15.3707 58.8979C11.829 56.5604 15.654 56.5958 15.654 56.5958C16.8782 56.7595 18.0494 57.1982 19.0799 57.879C20.1104 58.5599 20.9733 59.4652 21.604 60.5271C22.7031 62.4329 24.5065 63.8311 26.6261 64.4206C28.7457 65.0101 31.0121 64.7439 32.9373 63.6792C33.1353 61.7397 34.0136 59.9329 35.4165 58.5792C26.7748 57.6229 17.7082 54.3646 17.7082 39.7375C17.6309 35.922 19.0407 32.226 21.6394 29.4313C20.4559 26.1555 20.5956 22.5474 22.029 19.3729C22.029 19.3729 25.3228 18.3458 32.654 23.2688C39.0357 21.5682 45.7515 21.5682 52.1332 23.2688C59.5707 18.3458 62.7582 19.3729 62.7582 19.3729C64.1915 22.5474 64.3313 26.1555 63.1478 29.4313C65.8069 32.1748 67.2931 35.846 67.2915 39.6667C67.2915 54.3292 58.154 57.5521 49.5832 58.5083C50.5217 59.4195 51.2466 60.5273 51.7059 61.752C52.1652 62.9768 52.3474 64.2881 52.2394 65.5917V76.0396C52.2394 76.0396 52.9478 78.2708 54.8957 77.8812C62.5731 75.4177 69.2758 70.591 74.0462 64.0905C78.8166 57.59 81.4107 49.7483 81.4582 41.6854C81.346 31.4624 77.1795 21.7021 69.8743 14.5496C62.5691 7.39715 52.723 3.43778 42.4998 3.54167Z" fill="#002162"/>
</svg>
